<svg width="1280" height="720" xmlns="http://www.w3.org/2000/svg" xmlns:xlink="http://www.w3.org/1999/xlink" overflow="hidden"><g><rect x="0" y="0" width="1280" height="720" fill="#FFFFFF" fill-opacity="0"/><text font-family="Calibri,Calibri_MSFontService,sans-serif" font-weight="700" font-size="19" transform="translate(1216.36 566)">2022</text><path d="M125.5 266.5 125.5 540.336" stroke="#9F2936" stroke-miterlimit="8" fill="none" fill-rule="evenodd"/><path d="M482.5 266.5 482.5 273.167" stroke="#9F2936" stroke-miterlimit="8" fill="none" fill-rule="evenodd"/><path d="M482.5 297.5 482.5 309.067" stroke="#9F2936" stroke-miterlimit="8" fill="none" fill-rule="evenodd"/><path d="M482.5 338.5 482.5 345.167" stroke="#9F2936" stroke-miterlimit="8" fill="none" fill-rule="evenodd"/><path d="M374.5 302.5 374.5 314.067" stroke="#B20E12" stroke-miterlimit="8" fill="none" fill-rule="evenodd"/><path d="M374.5 333.5 374.5 349.967" stroke="#B20E12" stroke-miterlimit="8" fill="none" fill-rule="evenodd"/><path d="M374.5 369.5 374.5 540.236" stroke="#B20E12" stroke-miterlimit="8" fill="none" fill-rule="evenodd"/><path d="M522.5 333.5 522.5 345.067" stroke="#B20E12" stroke-miterlimit="8" fill="none" fill-rule="evenodd"/><path d="M522.5 369.5 522.5 540.236" stroke="#B20E12" stroke-miterlimit="8" fill="none" fill-rule="evenodd"/><path d="M428.5 338.5 428.5 345.167" stroke="#4472C4" stroke-miterlimit="8" fill="none" fill-rule="evenodd"/><path d="M687.5 338.5 687.5 345.167" stroke="#4472C4" stroke-miterlimit="8" fill="none" fill-rule="evenodd"/><path d="M687.5 374.5 687.5 381.167" stroke="#4472C4" stroke-miterlimit="8" fill="none" fill-rule="evenodd"/><path d="M687.5 410.5 687.5 477.567" stroke="#4472C4" stroke-miterlimit="8" fill="none" fill-rule="evenodd"/><path d="M680.5 410.5 680.5 477.567" stroke="#ED7D31" stroke-miterlimit="8" fill="none" fill-rule="evenodd"/><path d="M680.5 517.5 680.5 540.167" stroke="#ED7D31" stroke-miterlimit="8" fill="none" fill-rule="evenodd"/><path d="M1111.5 410.5 1111.5 422.033" stroke="#ED7D31" stroke-miterlimit="8" fill="none" fill-rule="evenodd"/><path d="M1111.5 446.5 1111.5 540.369" stroke="#ED7D31" stroke-miterlimit="8" fill="none" fill-rule="evenodd"/><path d="M1044.5 451.5 1044.5 477.7" stroke="#4E8542" stroke-miterlimit="8" fill="none" fill-rule="evenodd"/><path d="M1044.5 517.5 1044.5 540.167" stroke="#4E8542" stroke-miterlimit="8" fill="none" fill-rule="evenodd"/><path d="M1202.5 451.5 1202.5 540.469" stroke="#4E8542" stroke-miterlimit="8" fill="none" fill-rule="evenodd"/><path d="M482.5 374.5 482.5 540.336" stroke="#9F2936" stroke-miterlimit="8" fill="none" fill-rule="evenodd"/><path d="M428.5 374.5 428.5 540.336" stroke="#4472C4" stroke-miterlimit="8" fill="none" fill-rule="evenodd"/><path d="M687.5 517.5 687.5 540.167" stroke="#4472C4" stroke-miterlimit="8" fill="none" fill-rule="evenodd"/><rect x="78" y="540" width="1125" height="40" fill="#323232"/><text fill="#FFFFFF" font-family="Calibri,Calibri_MSFontService,sans-serif" font-weight="700" font-size="19" transform="translate(84.5156 566)">Jan</text><text fill="#FFFFFF" font-family="Calibri,Calibri_MSFontService,sans-serif" font-weight="700" font-size="19" transform="translate(188.867 566)">Feb</text><text fill="#FFFFFF" font-family="Calibri,Calibri_MSFontService,sans-serif" font-weight="700" font-size="19" transform="translate(283.12 566)">Mar</text><text fill="#FFFFFF" font-family="Calibri,Calibri_MSFontService,sans-serif" font-weight="700" font-size="19" transform="translate(387.471 566)">Apr</text><text fill="#FFFFFF" font-family="Calibri,Calibri_MSFontService,sans-serif" font-weight="700" font-size="19" transform="translate(488.456 566)">May</text><text fill="#FFFFFF" font-family="Calibri,Calibri_MSFontService,sans-serif" font-weight="700" font-size="19" transform="translate(592.808 566)">Jun</text><text fill="#FFFFFF" font-family="Calibri,Calibri_MSFontService,sans-serif" font-weight="700" font-size="19" transform="translate(693.793 566)">Jul</text><text fill="#FFFFFF" font-family="Calibri,Calibri_MSFontService,sans-serif" font-weight="700" font-size="19" transform="translate(798.145 566)">Aug</text><text fill="#FFFFFF" font-family="Calibri,Calibri_MSFontService,sans-serif" font-weight="700" font-size="19" transform="translate(902.496 566)">Sep</text><text fill="#FFFFFF" font-family="Calibri,Calibri_MSFontService,sans-serif" font-weight="700" font-size="19" transform="translate(1003.48 566)">Oct</text><text fill="#FFFFFF" font-family="Calibri,Calibri_MSFontService,sans-serif" font-weight="700" font-size="19" transform="translate(1107.83 566)">Nov</text><rect x="125" y="237" width="357" height="29" fill="#D54763"/><rect x="374" y="273" width="149" height="29" fill="#D54763"/><rect x="428" y="309" width="260" height="29" fill="#0891B2"/><rect x="428" y="345" width="260" height="29" fill="#0891B2"/><rect x="680" y="381" width="432" height="29" fill="#FB923C"/><rect x="1044" y="422" width="159" height="29" fill="#70AD47"/><text fill="#323232" font-family="Calibri,Calibri_MSFontService,sans-serif" font-weight="700" font-size="16" transform="translate(487.121 257)">1/15</text><text fill="#323232" font-family="Calibri,Calibri_MSFontService,sans-serif" font-weight="700" font-size="16" transform="translate(521.321 257)">-</text><text fill="#323232" font-family="Calibri,Calibri_MSFontService,sans-serif" font-weight="700" font-size="16" transform="translate(529.501 257)">4/30</text><text fill="#FFFFFF" font-family="Calibri,Calibri_MSFontService,sans-serif" font-weight="700" font-size="16" transform="translate(280.579 257)">Recruit</text><text font-family="Calibri,Calibri_MSFontService,sans-serif" font-weight="700" font-size="16" transform="translate(71.402 257)">75 days</text><text fill="#323232" font-family="Calibri,Calibri_MSFontService,sans-serif" font-weight="700" font-size="16" transform="translate(527.515 293)">3/30</text><text fill="#323232" font-family="Calibri,Calibri_MSFontService,sans-serif" font-weight="700" font-size="16" transform="translate(561.848 293)">-</text><text fill="#323232" font-family="Calibri,Calibri_MSFontService,sans-serif" font-weight="700" font-size="16" transform="translate(570.082 293)">5/12</text><text fill="#FFFFFF" font-family="Calibri,Calibri_MSFontService,sans-serif" font-weight="700" font-size="16" transform="translate(390.199 293)">Legal Agreements</text><text font-family="Calibri,Calibri_MSFontService,sans-serif" font-weight="700" font-size="16" transform="translate(320.499 293)">32 days</text><text fill="#323232" font-family="Calibri,Calibri_MSFontService,sans-serif" font-weight="700" font-size="16" transform="translate(692.457 329)">4/15</text><text fill="#323232" font-family="Calibri,Calibri_MSFontService,sans-serif" font-weight="700" font-size="16" transform="translate(726.791 329)">-</text><text fill="#323232" font-family="Calibri,Calibri_MSFontService,sans-serif" font-weight="700" font-size="16" transform="translate(735.024 329)">6/30</text><text fill="#FFFFFF" font-family="Calibri,Calibri_MSFontService,sans-serif" font-weight="700" font-size="16" transform="translate(491.488 329)">Architecture Review</text><text font-family="Calibri,Calibri_MSFontService,sans-serif" font-weight="700" font-size="16" transform="translate(373.024 329)">55 days</text><text fill="#323232" font-family="Calibri,Calibri_MSFontService,sans-serif" font-weight="700" font-size="16" transform="translate(692.457 365)">4/15</text><text fill="#323232" font-family="Calibri,Calibri_MSFontService,sans-serif" font-weight="700" font-size="16" transform="translate(726.791 365)">-</text><text fill="#323232" font-family="Calibri,Calibri_MSFontService,sans-serif" font-weight="700" font-size="16" transform="translate(735.024 365)">6/30</text><text fill="#FFFFFF" font-family="Calibri,Calibri_MSFontService,sans-serif" font-weight="700" font-size="16" transform="translate(514.855 365)">Training Calls</text><text font-family="Calibri,Calibri_MSFontService,sans-serif" font-weight="700" font-size="16" transform="translate(374.358 365)">55 days</text><text fill="#323232" font-family="Calibri,Calibri_MSFontService,sans-serif" font-weight="700" font-size="16" transform="translate(1116.6 401)">6/29</text><text fill="#323232" font-family="Calibri,Calibri_MSFontService,sans-serif" font-weight="700" font-size="16" transform="translate(1150.93 401)">-</text><text fill="#323232" font-family="Calibri,Calibri_MSFontService,sans-serif" font-weight="700" font-size="16" transform="translate(1159.16 401)">11/3</text><text fill="#FFFFFF" font-family="Calibri,Calibri_MSFontService,sans-serif" font-weight="700" font-size="16" transform="translate(825.349 401)">Partner Development</text><text font-family="Calibri,Calibri_MSFontService,sans-serif" font-weight="700" font-size="16" transform="translate(626.821 401)">92 days</text><text fill="#323232" font-family="Calibri,Calibri_MSFontService,sans-serif" font-weight="700" font-size="16" transform="translate(1207.48 432)">10/15</text><text fill="#323232" font-family="Calibri,Calibri_MSFontService,sans-serif" font-weight="700" font-size="16" transform="translate(1250.65 432)">-</text><text fill="#323232" font-family="Calibri,Calibri_MSFontService,sans-serif" font-weight="700" font-size="16" transform="translate(1207.48 451)">11/30</text><text fill="#FFFFFF" font-family="Calibri,Calibri_MSFontService,sans-serif" font-weight="700" font-size="16" transform="translate(1089.94 442)">Marketing</text><text font-family="Calibri,Calibri_MSFontService,sans-serif" font-weight="700" font-size="16" transform="translate(990.368 442)">33 days</text><path d="M675 520 691.8 520 699 533.5 691.8 547 675 547 682.2 533.5Z" fill="#70AD47" fill-rule="evenodd"/><path d="M830 520 846.8 520 854 533.5 846.8 547 830 547 837.2 533.5Z" fill="#70AD47" fill-rule="evenodd"/><path d="M1022 520 1038.8 520 1046 533.5 1038.8 547 1022 547 1029.2 533.5Z" fill="#70AD47" fill-rule="evenodd"/><path d="M116 573 132.8 573 140 586.5 132.8 600 116 600 123.2 586.5Z" fill="#D54763" fill-rule="evenodd"/><path d="M1190 573 1206.8 573 1214 586.5 1206.8 600 1190 600 1197.2 586.5Z" fill="#70AD47" fill-rule="evenodd"/><text font-family="Calibri,Calibri_MSFontService,sans-serif" font-weight="700" font-size="16" transform="translate(634.896 492)">Validation Call 1</text><text fill="#323232" font-family="Calibri,Calibri_MSFontService,sans-serif" font-weight="400" font-size="15" transform="translate(653.68 514)">06.30.2022</text><text font-family="Calibri,Calibri_MSFontService,sans-serif" font-weight="700" font-size="16" transform="translate(789.74 492)">Validation Call 2</text><text fill="#323232" font-family="Calibri,Calibri_MSFontService,sans-serif" font-weight="400" font-size="15" transform="translate(808.524 514)">08.15.2022</text><text font-family="Calibri,Calibri_MSFontService,sans-serif" font-weight="700" font-size="16" transform="translate(981.612 492)">Validation Call 3</text><text fill="#323232" font-family="Calibri,Calibri_MSFontService,sans-serif" font-weight="400" font-size="15" transform="translate(1000.4 514)">10.11.2022</text><text font-family="Calibri,Calibri_MSFontService,sans-serif" font-weight="700" font-size="16" transform="translate(88.3538 638)">Project Start</text><path d="M87.9938 640.402 108.494 640.402 128.994 640.402 149.494 640.402 169.994 640.402 169.994 641.402 149.494 641.402 128.994 641.402 108.494 641.402 87.9938 641.402Z" fill-rule="evenodd"/><text fill="#323232" font-family="Calibri,Calibri_MSFontService,sans-serif" font-weight="700" font-size="15" transform="translate(94.6814 617)">01.15.2022</text><text font-family="Calibri,Calibri_MSFontService,sans-serif" font-weight="700" font-size="16" transform="translate(1165.04 638)">Project End</text><path d="M1165.36 640.402 1183.86 640.402 1202.36 640.402 1220.86 640.402 1239.36 640.402 1239.36 641.402 1220.86 641.402 1202.36 641.402 1183.86 641.402 1165.36 641.402Z" fill-rule="evenodd"/><text fill="#323232" font-family="Calibri,Calibri_MSFontService,sans-serif" font-weight="700" font-size="15" transform="translate(1168.49 617)">11.30.2022</text></g></svg>