<svg width="1280" height="720" xmlns="http://www.w3.org/2000/svg" xmlns:xlink="http://www.w3.org/1999/xlink" overflow="hidden"><defs><linearGradient x1="640" y1="0" x2="640" y2="720" gradientUnits="userSpaceOnUse" spreadMethod="reflect" id="fill0"><stop offset="0" stop-color="#FEFEFE"/><stop offset="0.166667" stop-color="#FDFDFD"/><stop offset="0.333333" stop-color="#FDFDFD"/><stop offset="0.5" stop-color="#FCFCFC"/><stop offset="0.666667" stop-color="#FAFAFA"/><stop offset="0.833333" stop-color="#F9F9F9"/><stop offset="1" stop-color="#F7F7F7"/></linearGradient></defs><g><rect x="0" y="0" width="1280" height="720" fill="url(#fill0)"/><rect x="7" y="340" width="1185" height="51" fill="#15616D" fill-opacity="0.2"/><rect x="7" y="624" width="1185" height="74" fill="#6A994E" fill-opacity="0.2"/><rect x="144" y="137" width="1048" height="51" fill="#156082" fill-opacity="0.2"/><rect x="144" y="188" width="1048" height="51" fill="#156082" fill-opacity="0.2"/><rect x="144" y="239" width="1048" height="98" fill="#156082" fill-opacity="0.2"/><rect x="144" y="393" width="1048" height="51" fill="#196B24" fill-opacity="0.2"/><rect x="144" y="444" width="1048" height="75" fill="#196B24" fill-opacity="0.2"/><rect x="144" y="519" width="1048" height="51" fill="#196B24" fill-opacity="0.2"/><rect x="144" y="570" width="1048" height="51" fill="#196B24" fill-opacity="0.2"/><path d="M566.5 84.5001 566.5 101.327" stroke="#4F81BD" stroke-miterlimit="8" stroke-opacity="0.498039" fill="none" fill-rule="evenodd"/><path d="M144.5 188.5 1191.49 188.5" stroke="#4472C4" stroke-miterlimit="8" stroke-opacity="0.14902" fill="none" fill-rule="evenodd"/><path d="M144.5 239.5 1191.49 239.5" stroke="#4472C4" stroke-miterlimit="8" stroke-opacity="0.14902" fill="none" fill-rule="evenodd"/><path d="M144.5 444.5 1191.49 444.5" stroke="#4472C4" stroke-miterlimit="8" stroke-opacity="0.14902" fill="none" fill-rule="evenodd"/><path d="M144.5 519.5 1191.49 519.5" stroke="#4472C4" stroke-miterlimit="8" stroke-opacity="0.14902" fill="none" fill-rule="evenodd"/><path d="M144.5 570.5 1191.49 570.5" stroke="#4472C4" stroke-miterlimit="8" stroke-opacity="0.14902" fill="none" fill-rule="evenodd"/><path d="M411.5 85.5001 411.5 101.544" stroke="#4F81BD" stroke-miterlimit="8" stroke-opacity="0.498039" fill="none" fill-rule="evenodd"/><path d="M708.5 85.5001 708.5 101.544" stroke="#4F81BD" stroke-miterlimit="8" stroke-opacity="0.498039" fill="none" fill-rule="evenodd"/><path d="M886.5 85.5001 886.5 101.544" stroke="#4F81BD" stroke-miterlimit="8" stroke-opacity="0.498039" fill="none" fill-rule="evenodd"/><path d="M360 108.334C360 105.94 361.94 104 364.334 104L1187.67 104C1190.06 104 1192 105.94 1192 108.334L1192 125.666C1192 128.06 1190.06 130 1187.67 130L364.334 130C361.94 130 360 128.06 360 125.666Z" fill="#44546A" fill-rule="evenodd"/><rect x="7" y="137" width="138" height="200" fill="#156082"/><rect x="7" y="340" width="341" height="51" fill="#15616D"/><rect x="7" y="393" width="138" height="228" fill="#196B24"/><rect x="7" y="624" width="341" height="74" fill="#6A994E"/><rect x="144" y="137" width="203" height="51" fill="#156082" fill-opacity="0.247059"/><rect x="144" y="188" width="203" height="51" fill="#156082" fill-opacity="0.247059"/><rect x="144" y="239" width="203" height="98" fill="#156082" fill-opacity="0.247059"/><rect x="144" y="393" width="203" height="51" fill="#196B24" fill-opacity="0.247059"/><rect x="144" y="444" width="203" height="75" fill="#196B24" fill-opacity="0.247059"/><rect x="144" y="519" width="203" height="51" fill="#196B24" fill-opacity="0.247059"/><rect x="144" y="570" width="203" height="51" fill="#196B24" fill-opacity="0.247059"/><path d="M464.5 130.5 464.5 698.313" stroke="#5B9BD5" stroke-miterlimit="8" stroke-opacity="0.14902" fill="none" fill-rule="evenodd"/><path d="M570.5 130.5 570.5 698.313" stroke="#5B9BD5" stroke-miterlimit="8" stroke-opacity="0.14902" fill="none" fill-rule="evenodd"/><path d="M674.5 130.5 674.5 698.313" stroke="#5B9BD5" stroke-miterlimit="8" stroke-opacity="0.14902" fill="none" fill-rule="evenodd"/><path d="M777.5 130.5 777.5 698.313" stroke="#5B9BD5" stroke-miterlimit="8" stroke-opacity="0.14902" fill="none" fill-rule="evenodd"/><path d="M878.5 130.5 878.5 698.313" stroke="#5B9BD5" stroke-miterlimit="8" stroke-opacity="0.14902" fill="none" fill-rule="evenodd"/><path d="M982.5 130.5 982.5 698.313" stroke="#5B9BD5" stroke-miterlimit="8" stroke-opacity="0.14902" fill="none" fill-rule="evenodd"/><path d="M1086.5 130.5 1086.5 698.313" stroke="#5B9BD5" stroke-miterlimit="8" stroke-opacity="0.14902" fill="none" fill-rule="evenodd"/><path d="M428 146.167C428 144.97 428.97 144 430.167 144L461.833 144C463.03 144 464 144.97 464 146.167L464 154.833C464 156.03 463.03 157 461.833 157L430.167 157C428.97 157 428 156.03 428 154.833Z" fill="#156082" fill-rule="evenodd"/><path d="M438 170.167C438 168.97 438.97 168 440.167 168L471.833 168C473.03 168 474 168.97 474 170.167L474 178.833C474 180.03 473.03 181 471.833 181L440.167 181C438.97 181 438 180.03 438 178.833Z" fill="#156082" fill-rule="evenodd"/><path d="M483 197.167C483 195.97 483.97 195 485.167 195L516.833 195C518.03 195 519 195.97 519 197.167L519 205.833C519 207.03 518.03 208 516.833 208L485.167 208C483.97 208 483 207.03 483 205.833Z" fill="#156082" fill-rule="evenodd"/><path d="M519 221.167C519 219.97 519.97 219 521.167 219L552.833 219C554.03 219 555 219.97 555 221.167L555 229.833C555 231.03 554.03 232 552.833 232L521.167 232C519.97 232 519 231.03 519 229.833Z" fill="#156082" fill-rule="evenodd"/><path d="M566 248.167C566 246.97 566.97 246 568.167 246L590.833 246C592.03 246 593 246.97 593 248.167L593 256.833C593 258.03 592.03 259 590.833 259L568.167 259C566.97 259 566 258.03 566 256.833Z" fill="#156082" fill-rule="evenodd"/><path d="M587 272.167C587 270.97 587.97 270 589.167 270L612.833 270C614.03 270 615 270.97 615 272.167L615 280.833C615 282.03 614.03 283 612.833 283L589.167 283C587.97 283 587 282.03 587 280.833Z" fill="#156082" fill-rule="evenodd"/><path d="M619 295.167C619 293.97 619.97 293 621.167 293L652.833 293C654.03 293 655 293.97 655 295.167L655 303.833C655 305.03 654.03 306 652.833 306L621.167 306C619.97 306 619 305.03 619 303.833Z" fill="#156082" fill-rule="evenodd"/><path d="M639 319.167C639 317.97 639.97 317 641.167 317L672.833 317C674.03 317 675 317.97 675 319.167L675 327.833C675 329.03 674.03 330 672.833 330L641.167 330C639.97 330 639 329.03 639 327.833Z" fill="#156082" fill-rule="evenodd"/><path d="M658 349.167C658 347.97 658.97 347 660.167 347L689.833 347C691.03 347 692 347.97 692 349.167L692 357.833C692 359.03 691.03 360 689.833 360L660.167 360C658.97 360 658 359.03 658 357.833Z" fill="#156082" fill-rule="evenodd"/><path d="M663 372.333C663 371.045 664.045 370 665.333 370L691.667 370C692.955 370 694 371.045 694 372.333L694 381.667C694 382.955 692.955 384 691.667 384L665.333 384C664.045 384 663 382.955 663 381.667Z" fill="#156082" fill-rule="evenodd"/><path d="M706 402.333C706 401.045 707.045 400 708.333 400L739.667 400C740.955 400 742 401.045 742 402.333L742 411.667C742 412.955 740.955 414 739.667 414L708.333 414C707.045 414 706 412.955 706 411.667Z" fill="#156082" fill-rule="evenodd"/><path d="M721 426.167C721 424.97 721.97 424 723.167 424L754.833 424C756.03 424 757 424.97 757 426.167L757 434.833C757 436.03 756.03 437 754.833 437L723.167 437C721.97 437 721 436.03 721 434.833Z" fill="#156082" fill-rule="evenodd"/><path d="M754 453.333C754 452.045 755.045 451 756.333 451L787.667 451C788.955 451 790 452.045 790 453.333L790 462.667C790 463.955 788.955 465 787.667 465L756.333 465C755.045 465 754 463.955 754 462.667Z" fill="#156082" fill-rule="evenodd"/><path d="M767 477.167C767 475.97 767.97 475 769.167 475L800.833 475C802.03 475 803 475.97 803 477.167L803 485.833C803 487.03 802.03 488 800.833 488L769.167 488C767.97 488 767 487.03 767 485.833Z" fill="#156082" fill-rule="evenodd"/><path d="M779 500.333C779 499.045 780.045 498 781.333 498L812.667 498C813.955 498 815 499.045 815 500.333L815 509.667C815 510.955 813.955 512 812.667 512L781.333 512C780.045 512 779 510.955 779 509.667Z" fill="#156082" fill-rule="evenodd"/><path d="M815 528.167C815 526.97 815.97 526 817.167 526L839.833 526C841.03 526 842 526.97 842 528.167L842 536.833C842 538.03 841.03 539 839.833 539L817.167 539C815.97 539 815 538.03 815 536.833Z" fill="#156082" fill-rule="evenodd"/><path d="M839 551.333C839 550.045 840.045 549 841.333 549L882.667 549C883.955 549 885 550.045 885 551.333L885 560.667C885 561.955 883.955 563 882.667 563L841.333 563C840.045 563 839 561.955 839 560.667Z" fill="#156082" fill-rule="evenodd"/><path d="M885 579.167C885 577.97 885.97 577 887.167 577L904.833 577C906.03 577 907 577.97 907 579.167L907 587.833C907 589.03 906.03 590 904.833 590L887.167 590C885.97 590 885 589.03 885 587.833Z" fill="#156082" fill-rule="evenodd"/><path d="M905 602.333C905 601.045 906.045 600 907.333 600L925.667 600C926.955 600 928 601.045 928 602.333L928 611.667C928 612.955 926.955 614 925.667 614L907.333 614C906.045 614 905 612.955 905 611.667Z" fill="#156082" fill-rule="evenodd"/><path d="M905 633.167C905 631.97 905.97 631 907.167 631L925.833 631C927.03 631 928 631.97 928 633.167L928 641.833C928 643.03 927.03 644 925.833 644L907.167 644C905.97 644 905 643.03 905 641.833Z" fill="#156082" fill-rule="evenodd"/><path d="M915 656.333C915 655.045 916.045 654 917.333 654L935.667 654C936.955 654 938 655.045 938 656.333L938 665.667C938 666.955 936.955 668 935.667 668L917.333 668C916.045 668 915 666.955 915 665.667Z" fill="#156082" fill-rule="evenodd"/><path d="M961 680.167C961 678.97 961.97 678 963.167 678L981.833 678C983.03 678 984 678.97 984 680.167L984 688.833C984 690.03 983.03 691 981.833 691L963.167 691C961.97 691 961 690.03 961 688.833Z" fill="#156082" fill-rule="evenodd"/><text fill="#FFFFFF" font-family="Segoe UI Semibold,Segoe UI Semibold_MSFontService,sans-serif" font-weight="600" font-size="16" transform="translate(44.1666 243)">Planning</text><text fill="#FFFFFF" font-family="Segoe UI Semibold,Segoe UI Semibold_MSFontService,sans-serif" font-weight="600" font-size="16" transform="translate(136.75 372)">Acquisition</text><text fill="#FFFFFF" font-family="Segoe UI Semibold,Segoe UI Semibold_MSFontService,sans-serif" font-weight="600" font-size="16" transform="translate(17.9166 514)">Implementation</text><text fill="#FFFFFF" font-family="Segoe UI Semibold,Segoe UI Semibold_MSFontService,sans-serif" font-weight="600" font-size="16" transform="translate(107.947 667)">Review and closure</text><text font-family="Segoe UI Semibold,Segoe UI Semibold_MSFontService,sans-serif" font-weight="600" font-size="15" transform="translate(151.021 168)">Requirements</text><text font-family="Segoe UI Semibold,Segoe UI Semibold_MSFontService,sans-serif" font-weight="600" font-size="15" transform="translate(151.021 219)">Feasibility study</text><text font-family="Segoe UI Semibold,Segoe UI Semibold_MSFontService,sans-serif" font-weight="600" font-size="15" transform="translate(151.021 293)">Vendor selection</text><text font-family="Segoe UI Semibold,Segoe UI Semibold_MSFontService,sans-serif" font-weight="600" font-size="15" transform="translate(151.021 424)">Infrastructure config</text><text font-family="Segoe UI Semibold,Segoe UI Semibold_MSFontService,sans-serif" font-weight="600" font-size="15" transform="translate(151.021 487)">System integration</text><text font-family="Segoe UI Semibold,Segoe UI Semibold_MSFontService,sans-serif" font-weight="600" font-size="15" transform="translate(151.021 550)">Data migration</text><text font-family="Segoe UI Semibold,Segoe UI Semibold_MSFontService,sans-serif" font-weight="600" font-size="15" transform="translate(151.021 601)">Training &amp; documentation</text><text fill="#FFFFFF" font-family="Segoe UI Black,Segoe UI Black_MSFontService,sans-serif" font-weight="900" font-size="16" transform="translate(366.792 123)">May</text><text fill="#FFFFFF" font-family="Segoe UI Black,Segoe UI Black_MSFontService,sans-serif" font-weight="900" font-size="16" transform="translate(470.694 123)">Jul</text><text fill="#FFFFFF" font-family="Segoe UI Black,Segoe UI Black_MSFontService,sans-serif" font-weight="900" font-size="16" transform="translate(576.299 123)">Sep</text><text fill="#FFFFFF" font-family="Segoe UI Black,Segoe UI Black_MSFontService,sans-serif" font-weight="900" font-size="16" transform="translate(680.201 123)">Nov</text><text fill="#FFFFFF" font-family="Segoe UI Black,Segoe UI Black_MSFontService,sans-serif" font-weight="900" font-size="16" transform="translate(784.104 123)">Jan</text><text fill="#FFFFFF" font-family="Segoe UI Black,Segoe UI Black_MSFontService,sans-serif" font-weight="900" font-size="16" transform="translate(884.599 123)">Mar</text><text fill="#FFFFFF" font-family="Segoe UI Black,Segoe UI Black_MSFontService,sans-serif" font-weight="900" font-size="16" transform="translate(988.501 123)">May</text><text fill="#44546A" font-family="Segoe UI,Segoe UI_MSFontService,sans-serif" font-style="italic" font-weight="400" font-size="11" transform="translate(353.506 154)">Jun 10</text><text fill="#44546A" font-family="Segoe UI,Segoe UI_MSFontService,sans-serif" font-style="italic" font-weight="400" font-size="11" transform="translate(386.28 154)">-</text><text fill="#44546A" font-family="Segoe UI,Segoe UI_MSFontService,sans-serif" font-style="italic" font-weight="400" font-size="11" transform="translate(393.453 154)">Jun 30</text><text font-family="Segoe UI,Segoe UI_MSFontService,sans-serif" font-weight="700" font-size="15" transform="translate(469.359 156)">Infrastructure assessment</text><text fill="#44546A" font-family="Segoe UI,Segoe UI_MSFontService,sans-serif" font-style="italic" font-weight="400" font-size="11" transform="translate(372.3 178)">Jun 16</text><text fill="#44546A" font-family="Segoe UI,Segoe UI_MSFontService,sans-serif" font-style="italic" font-weight="400" font-size="11" transform="translate(405.073 178)">-</text><text fill="#44546A" font-family="Segoe UI,Segoe UI_MSFontService,sans-serif" font-style="italic" font-weight="400" font-size="11" transform="translate(412.246 178)">Jul 6</text><text font-family="Segoe UI,Segoe UI_MSFontService,sans-serif" font-weight="700" font-size="15" transform="translate(479.579 179)">Stakeholder interviews</text><text fill="#44546A" font-family="Segoe UI,Segoe UI_MSFontService,sans-serif" font-style="italic" font-weight="400" font-size="11" transform="translate(414.921 205)">Jul 12</text><text fill="#44546A" font-family="Segoe UI,Segoe UI_MSFontService,sans-serif" font-style="italic" font-weight="400" font-size="11" transform="translate(444.528 205)">-</text><text fill="#44546A" font-family="Segoe UI,Segoe UI_MSFontService,sans-serif" font-style="italic" font-weight="400" font-size="11" transform="translate(451.701 205)">Aug 1</text><text font-family="Segoe UI,Segoe UI_MSFontService,sans-serif" font-weight="700" font-size="15" transform="translate(523.865 207)">Cost</text><text font-family="Segoe UI,Segoe UI_MSFontService,sans-serif" font-weight="700" font-size="15" transform="translate(553.879 207)">-</text><text font-family="Segoe UI,Segoe UI_MSFontService,sans-serif" font-weight="700" font-size="15" transform="translate(559.799 207)">benefit analysis</text><text fill="#44546A" font-family="Segoe UI,Segoe UI_MSFontService,sans-serif" font-style="italic" font-weight="400" font-size="11" transform="translate(443.958 229)">Aug 2</text><text fill="#44546A" font-family="Segoe UI,Segoe UI_MSFontService,sans-serif" font-style="italic" font-weight="400" font-size="11" transform="translate(473.811 229)">-</text><text fill="#44546A" font-family="Segoe UI,Segoe UI_MSFontService,sans-serif" font-style="italic" font-weight="400" font-size="11" transform="translate(480.984 229)">Aug 22</text><text font-family="Segoe UI,Segoe UI_MSFontService,sans-serif" font-weight="700" font-size="15" transform="translate(559.635 230)">Executive approval</text><text fill="#44546A" font-family="Segoe UI,Segoe UI_MSFontService,sans-serif" font-style="italic" font-weight="400" font-size="11" transform="translate(488.508 256)">Aug 30</text><text fill="#44546A" font-family="Segoe UI,Segoe UI_MSFontService,sans-serif" font-style="italic" font-weight="400" font-size="11" transform="translate(524.115 256)">-</text><text fill="#44546A" font-family="Segoe UI,Segoe UI_MSFontService,sans-serif" font-style="italic" font-weight="400" font-size="11" transform="translate(531.288 256)">Sep 13</text><text font-family="Segoe UI,Segoe UI_MSFontService,sans-serif" font-weight="700" font-size="15" transform="translate(597.108 258)">Identify vendors</text><text fill="#44546A" font-family="Segoe UI,Segoe UI_MSFontService,sans-serif" font-style="italic" font-weight="400" font-size="11" transform="translate(510.644 280)">Sep 11</text><text fill="#44546A" font-family="Segoe UI,Segoe UI_MSFontService,sans-serif" font-style="italic" font-weight="400" font-size="11" transform="translate(544.084 280)">-</text><text fill="#44546A" font-family="Segoe UI,Segoe UI_MSFontService,sans-serif" font-style="italic" font-weight="400" font-size="11" transform="translate(551.257 280)">Sep 26</text><text font-family="Segoe UI,Segoe UI_MSFontService,sans-serif" font-weight="700" font-size="15" transform="translate(619.251 281)">Issue RFP</text><text fill="#44546A" font-family="Segoe UI,Segoe UI_MSFontService,sans-serif" font-style="italic" font-weight="400" font-size="11" transform="translate(544.644 303)">Sep 30</text><text fill="#44546A" font-family="Segoe UI,Segoe UI_MSFontService,sans-serif" font-style="italic" font-weight="400" font-size="11" transform="translate(578.084 303)">-</text><text fill="#44546A" font-family="Segoe UI,Segoe UI_MSFontService,sans-serif" font-style="italic" font-weight="400" font-size="11" transform="translate(585.258 303)">Oct 20</text><text font-family="Segoe UI,Segoe UI_MSFontService,sans-serif" font-weight="700" font-size="15" transform="translate(660.13 305)">Evaluate proposals</text><text fill="#44546A" font-family="Segoe UI,Segoe UI_MSFontService,sans-serif" font-style="italic" font-weight="400" font-size="11" transform="translate(567.766 327)">Oct 12</text><text fill="#44546A" font-family="Segoe UI,Segoe UI_MSFontService,sans-serif" font-style="italic" font-weight="400" font-size="11" transform="translate(601.04 327)">-</text><text fill="#44546A" font-family="Segoe UI,Segoe UI_MSFontService,sans-serif" font-style="italic" font-weight="400" font-size="11" transform="translate(608.213 327)">Nov 1</text><text font-family="Segoe UI,Segoe UI_MSFontService,sans-serif" font-weight="700" font-size="15" transform="translate(680.57 328)">Draft final contracts</text><text fill="#44546A" font-family="Segoe UI,Segoe UI_MSFontService,sans-serif" font-style="italic" font-weight="400" font-size="11" transform="translate(580.332 357)">Oct 23</text><text fill="#44546A" font-family="Segoe UI,Segoe UI_MSFontService,sans-serif" font-style="italic" font-weight="400" font-size="11" transform="translate(613.605 357)">-</text><text fill="#44546A" font-family="Segoe UI,Segoe UI_MSFontService,sans-serif" font-style="italic" font-weight="400" font-size="11" transform="translate(620.778 357)">Nov 10</text><text font-family="Segoe UI,Segoe UI_MSFontService,sans-serif" font-weight="700" font-size="15" transform="translate(695.9 359)">Hardware purchases</text><text fill="#44546A" font-family="Segoe UI,Segoe UI_MSFontService,sans-serif" font-style="italic" font-weight="400" font-size="11" transform="translate(585.442 381)">Oct 26</text><text fill="#44546A" font-family="Segoe UI,Segoe UI_MSFontService,sans-serif" font-style="italic" font-weight="400" font-size="11" transform="translate(618.715 381)">-</text><text fill="#44546A" font-family="Segoe UI,Segoe UI_MSFontService,sans-serif" font-style="italic" font-weight="400" font-size="11" transform="translate(625.888 381)">Nov 12</text><text font-family="Segoe UI,Segoe UI_MSFontService,sans-serif" font-weight="700" font-size="15" transform="translate(699.307 382)">Software license purchases</text><text fill="#44546A" font-family="Segoe UI,Segoe UI_MSFontService,sans-serif" font-style="italic" font-weight="400" font-size="11" transform="translate(626.727 411)">Nov 20</text><text fill="#44546A" font-family="Segoe UI,Segoe UI_MSFontService,sans-serif" font-style="italic" font-weight="400" font-size="11" transform="translate(662.5 411)">-</text><text fill="#44546A" font-family="Segoe UI,Segoe UI_MSFontService,sans-serif" font-style="italic" font-weight="400" font-size="11" transform="translate(669.673 411)">Dec 10</text><text font-family="Segoe UI,Segoe UI_MSFontService,sans-serif" font-weight="700" font-size="15" transform="translate(746.999 412)">Install hardware</text><text fill="#44546A" font-family="Segoe UI,Segoe UI_MSFontService,sans-serif" font-style="italic" font-weight="400" font-size="11" transform="translate(642.056 434)">Nov 29</text><text fill="#44546A" font-family="Segoe UI,Segoe UI_MSFontService,sans-serif" font-style="italic" font-weight="400" font-size="11" transform="translate(677.83 434)">-</text><text fill="#44546A" font-family="Segoe UI,Segoe UI_MSFontService,sans-serif" font-style="italic" font-weight="400" font-size="11" transform="translate(685.003 434)">Dec 19</text><text font-family="Segoe UI,Segoe UI_MSFontService,sans-serif" font-weight="700" font-size="15" transform="translate(762.329 436)">Configure network and security protocols</text><text fill="#44546A" font-family="Segoe UI,Segoe UI_MSFontService,sans-serif" font-style="italic" font-weight="400" font-size="11" transform="translate(683.051 462)">Dec 18</text><text fill="#44546A" font-family="Segoe UI,Segoe UI_MSFontService,sans-serif" font-style="italic" font-weight="400" font-size="11" transform="translate(717.657 462)">-</text><text fill="#44546A" font-family="Segoe UI,Segoe UI_MSFontService,sans-serif" font-style="italic" font-weight="400" font-size="11" transform="translate(724.831 462)">Jan 7</text><text font-family="Segoe UI,Segoe UI_MSFontService,sans-serif" font-weight="700" font-size="15" transform="translate(794.692 463)">Integrate new hardware</text><text fill="#44546A" font-family="Segoe UI,Segoe UI_MSFontService,sans-serif" font-style="italic" font-weight="400" font-size="11" transform="translate(690.506 485)">Dec 26</text><text fill="#44546A" font-family="Segoe UI,Segoe UI_MSFontService,sans-serif" font-style="italic" font-weight="400" font-size="11" transform="translate(725.113 485)">-</text><text fill="#44546A" font-family="Segoe UI,Segoe UI_MSFontService,sans-serif" font-style="italic" font-weight="400" font-size="11" transform="translate(732.286 485)">Jan 15</text><text font-family="Segoe UI,Segoe UI_MSFontService,sans-serif" font-weight="700" font-size="15" transform="translate(808.319 487)">Perfom compatibiilty testing</text><text fill="#44546A" font-family="Segoe UI,Segoe UI_MSFontService,sans-serif" font-style="italic" font-weight="400" font-size="11" transform="translate(711.231 509)">Jan 2</text><text fill="#44546A" font-family="Segoe UI,Segoe UI_MSFontService,sans-serif" font-style="italic" font-weight="400" font-size="11" transform="translate(738.085 509)">-</text><text fill="#44546A" font-family="Segoe UI,Segoe UI_MSFontService,sans-serif" font-style="italic" font-weight="400" font-size="11" transform="translate(745.258 509)">Jan 22</text><text font-family="Segoe UI,Segoe UI_MSFontService,sans-serif" font-weight="700" font-size="15" transform="translate(820.242 510)">Conduct UAT</text><text fill="#44546A" font-family="Segoe UI,Segoe UI_MSFontService,sans-serif" font-style="italic" font-weight="400" font-size="11" transform="translate(745.619 536)">Jan 23</text><text fill="#44546A" font-family="Segoe UI,Segoe UI_MSFontService,sans-serif" font-style="italic" font-weight="400" font-size="11" transform="translate(778.225 536)">-</text><text fill="#44546A" font-family="Segoe UI,Segoe UI_MSFontService,sans-serif" font-style="italic" font-weight="400" font-size="11" transform="translate(785.399 536)">Feb 6</text><text font-family="Segoe UI,Segoe UI_MSFontService,sans-serif" font-weight="700" font-size="15" transform="translate(845.792 538)">Migrate data</text><text fill="#44546A" font-family="Segoe UI,Segoe UI_MSFontService,sans-serif" font-style="italic" font-weight="400" font-size="11" transform="translate(772.647 560)">Feb 6</text><text fill="#44546A" font-family="Segoe UI,Segoe UI_MSFontService,sans-serif" font-style="italic" font-weight="400" font-size="11" transform="translate(800.167 560)">-</text><text fill="#44546A" font-family="Segoe UI,Segoe UI_MSFontService,sans-serif" font-style="italic" font-weight="400" font-size="11" transform="translate(807.341 560)">Mar 4</text><text font-family="Segoe UI,Segoe UI_MSFontService,sans-serif" font-weight="700" font-size="15" transform="translate(890.078 561)">Validate data integrity</text><text fill="#44546A" font-family="Segoe UI,Segoe UI_MSFontService,sans-serif" font-style="italic" font-weight="400" font-size="11" transform="translate(810.859 587)">Mar 5</text><text fill="#44546A" font-family="Segoe UI,Segoe UI_MSFontService,sans-serif" font-style="italic" font-weight="400" font-size="11" transform="translate(840.546 587)">-</text><text fill="#44546A" font-family="Segoe UI,Segoe UI_MSFontService,sans-serif" font-style="italic" font-weight="400" font-size="11" transform="translate(847.719 587)">Mar 17</text><text font-family="Segoe UI,Segoe UI_MSFontService,sans-serif" font-weight="700" font-size="15" transform="translate(912.221 589)">Create training materials</text><text fill="#44546A" font-family="Segoe UI,Segoe UI_MSFontService,sans-serif" font-style="italic" font-weight="400" font-size="11" transform="translate(825.128 611)">Mar 17</text><text fill="#44546A" font-family="Segoe UI,Segoe UI_MSFontService,sans-serif" font-style="italic" font-weight="400" font-size="11" transform="translate(860.568 611)">-</text><text fill="#44546A" font-family="Segoe UI,Segoe UI_MSFontService,sans-serif" font-style="italic" font-weight="400" font-size="11" transform="translate(867.741 611)">Mar 29</text><text font-family="Segoe UI,Segoe UI_MSFontService,sans-serif" font-weight="700" font-size="15" transform="translate(932.661 612)">Conduct training sessions</text><text fill="#44546A" font-family="Segoe UI,Segoe UI_MSFontService,sans-serif" font-style="italic" font-weight="400" font-size="11" transform="translate(825.128 641)">Mar 17</text><text fill="#44546A" font-family="Segoe UI,Segoe UI_MSFontService,sans-serif" font-style="italic" font-weight="400" font-size="11" transform="translate(860.568 641)">-</text><text fill="#44546A" font-family="Segoe UI,Segoe UI_MSFontService,sans-serif" font-style="italic" font-weight="400" font-size="11" transform="translate(867.741 641)">Mar 29</text><text font-family="Segoe UI,Segoe UI_MSFontService,sans-serif" font-weight="700" font-size="15" transform="translate(932.661 643)">Gather feedback</text><text fill="#44546A" font-family="Segoe UI,Segoe UI_MSFontService,sans-serif" font-style="italic" font-weight="400" font-size="11" transform="translate(842.839 664)">Mar 23</text><text fill="#44546A" font-family="Segoe UI,Segoe UI_MSFontService,sans-serif" font-style="italic" font-weight="400" font-size="11" transform="translate(878.279 664)">-</text><text fill="#44546A" font-family="Segoe UI,Segoe UI_MSFontService,sans-serif" font-style="italic" font-weight="400" font-size="11" transform="translate(885.452 664)">Apr 4</text><text font-family="Segoe UI,Segoe UI_MSFontService,sans-serif" font-weight="700" font-size="15" transform="translate(942.881 666)">Complete documentation</text><text fill="#44546A" font-family="Segoe UI,Segoe UI_MSFontService,sans-serif" font-style="italic" font-weight="400" font-size="11" transform="translate(887.455 688)">Apr 19</text><text fill="#44546A" font-family="Segoe UI,Segoe UI_MSFontService,sans-serif" font-style="italic" font-weight="400" font-size="11" transform="translate(920.895 688)">-</text><text fill="#44546A" font-family="Segoe UI,Segoe UI_MSFontService,sans-serif" font-style="italic" font-weight="400" font-size="11" transform="translate(928.068 688)">May 1</text><text font-family="Segoe UI,Segoe UI_MSFontService,sans-serif" font-weight="700" font-size="15" transform="translate(988.87 690)">Handover to IT</text><text fill="#FFFFFF" font-family="Segoe UI Black,Segoe UI Black_MSFontService,sans-serif" font-weight="900" font-size="16" transform="translate(1092.4 123)">Jul</text><path d="M464.5 108.5 464.5 127.167" stroke="#FFFFFF" stroke-miterlimit="8" stroke-opacity="0.298039" fill="none" fill-rule="evenodd"/><path d="M570.5 108.5 570.5 127.167" stroke="#FFFFFF" stroke-miterlimit="8" stroke-opacity="0.298039" fill="none" fill-rule="evenodd"/><path d="M674.5 108.5 674.5 127.167" stroke="#FFFFFF" stroke-miterlimit="8" stroke-opacity="0.298039" fill="none" fill-rule="evenodd"/><path d="M777.5 108.5 777.5 127.167" stroke="#FFFFFF" stroke-miterlimit="8" stroke-opacity="0.298039" fill="none" fill-rule="evenodd"/><path d="M878.5 108.5 878.5 127.167" stroke="#FFFFFF" stroke-miterlimit="8" stroke-opacity="0.298039" fill="none" fill-rule="evenodd"/><path d="M982.5 108.5 982.5 127.167" stroke="#FFFFFF" stroke-miterlimit="8" stroke-opacity="0.298039" fill="none" fill-rule="evenodd"/><path d="M1086.5 108.5 1086.5 127.167" stroke="#FFFFFF" stroke-miterlimit="8" stroke-opacity="0.298039" fill="none" fill-rule="evenodd"/><path d="M0 18 8 0 16 18Z" fill="#156082" fill-rule="evenodd" transform="matrix(1 0 0 -1 558 110)"/><path d="M0 18 8 0 16 18Z" fill="#156082" fill-rule="evenodd" transform="matrix(1 0 0 -1 403 110)"/><path d="M0 18 8 0 16 18Z" fill="#156082" fill-rule="evenodd" transform="matrix(1 0 0 -1 700 110)"/><path d="M0 18 8 0 16 18Z" fill="#156082" fill-rule="evenodd" transform="matrix(1 0 0 -1 878 110)"/><path d="M0 18 8 0 16 18Z" fill="#156082" fill-rule="evenodd" transform="matrix(1 0 0 -1 1088 110)"/><text font-family="Segoe UI,Segoe UI_MSFontService,sans-serif" font-weight="700" font-size="15" transform="translate(361.316 62)">Project Kickoff</text><text fill="#44546A" font-family="Segoe UI,Segoe UI_MSFontService,sans-serif" font-weight="700" font-size="12" transform="translate(391.371 79)">May 31</text><text font-family="Segoe UI,Segoe UI_MSFontService,sans-serif" font-weight="700" font-size="15" transform="translate(518.674 42)">Hardware and</text><text font-family="Segoe UI,Segoe UI_MSFontService,sans-serif" font-weight="700" font-size="15" transform="translate(497.748 60)">software acquisition</text><text fill="#44546A" font-family="Segoe UI,Segoe UI_MSFontService,sans-serif" font-weight="700" font-size="12" transform="translate(547.161 78)">Aug 30</text><text font-family="Segoe UI,Segoe UI_MSFontService,sans-serif" font-weight="700" font-size="15" transform="translate(654.238 43)">Integration and</text><text font-family="Segoe UI,Segoe UI_MSFontService,sans-serif" font-weight="700" font-size="15" transform="translate(683.905 61)">testing</text><text fill="#44546A" font-family="Segoe UI,Segoe UI_MSFontService,sans-serif" font-weight="700" font-size="12" transform="translate(688.202 79)">Nov 20</text><text font-family="Segoe UI,Segoe UI_MSFontService,sans-serif" font-weight="700" font-size="15" transform="translate(834.771 43)">Data migration</text><text font-family="Segoe UI,Segoe UI_MSFontService,sans-serif" font-weight="700" font-size="15" transform="translate(850.104 61)">completed</text><text fill="#44546A" font-family="Segoe UI,Segoe UI_MSFontService,sans-serif" font-weight="700" font-size="12" transform="translate(870.483 79)">Mar 5</text><text font-family="Segoe UI,Segoe UI_MSFontService,sans-serif" font-weight="700" font-size="15" transform="translate(1046.18 68)">Project closure</text><text fill="#44546A" font-family="Segoe UI,Segoe UI_MSFontService,sans-serif" font-weight="700" font-size="12" transform="translate(1082.89 86)">Jul 6</text></g></svg>